# xmcd CD database file
#
# Track frame offsets:
#	182
#	13715
#	35355
#	52087
#	69977
#	88182
#	100162
#	116047
#	133845
#	151955
#	164782
#	177420
#	197687
#	212790
#
# Disc length: 3037 seconds
#
# Revision: 0
# Processed by: cddbd v1.5PL3 Copyright (c) Steve Scherf et al.
# Submitted via: CDex 1.51
#
DISCID=cb0bdb0e
DTITLE=Louis Armstrong - Doctor Jazz Louis "Satchmo" Armstrong And His All Stars
DYEAR=1900
DGENRE=Jazz
TTITLE0=Snake Rag
TTITLE1=St. James Infirmary
TTITLE2=I Want A Big Butter and Egg Man
TTITLE3=I Ain't Got Nobody
TTITLE4=Panama Rag
TTITLE5=Doctor Jazz
TTITLE6=Hot Time In The Old Town Tonight
TTITLE7=Frankie And Johnny
TTITLE8=I Ain't Gonna Give Nobody None Of This Jelly Roll
TTITLE9=Drop That Sack
TTITLE10=Jelly Roll Blues
TTITLE11=My Old Kentucky Home
TTITLE12=Chimes Blues
TTITLE13=New Orleans Stomp
EXTD=
EXTT0=
EXTT1=
EXTT2=
EXTT3=
EXTT4=
EXTT5=
EXTT6=
EXTT7=
EXTT8=
EXTT9=
EXTT10=
EXTT11=
EXTT12=
EXTT13=
PLAYORDER=
